<?xml version="1.0"?>
<svg xmlns="http://www.w3.org/2000/svg" xmlns:xlink="http://www.w3.org/1999/xlink" xmlns:svgjs="http://svgjs.com/svgjs" version="1.1" width="512" height="512" x="0" y="0" viewBox="0 0 473.6 473.6" style="enable-background:new 0 0 512 512" xml:space="preserve" class=""><g>
<g xmlns="http://www.w3.org/2000/svg">
	<g>
		<path d="M266.831,49.723h-9.846v201.846L113.231,395.323l6.892,6.892c38.4,39.385,90.584,61.046,145.723,61.046    c114.215,0,207.754-92.554,207.754-206.769S381.046,49.723,266.831,49.723z M265.846,443.569    c-46.277,0-90.585-16.738-125.046-48.246l134.892-134.892V69.415c98.462,4.923,177.231,87.631,177.231,187.077    C452.923,359.877,369.231,443.569,265.846,443.569z" fill="#888888" data-original="#000000" style="" class=""/>
	</g>
</g>
<g xmlns="http://www.w3.org/2000/svg">
	<g>
		<path d="M0.984,267.323l0.985,9.846c3.938,47.261,25.6,92.554,59.077,126.031l6.892,6.892l166.4-166.4L0.984,267.323z     M21.662,285.046l158.523-15.754L67.939,381.538C43.323,354.954,27.569,320.492,21.662,285.046z" fill="#888888" data-original="#000000" style="" class=""/>
	</g>
</g>
<g xmlns="http://www.w3.org/2000/svg">
	<g>
		<path d="M206.769,10.338C92.554,10.338,0,102.892,0,217.108c0,6.892,0,13.785,0.985,20.677l0.985,9.846l214.646-21.662V10.338    H206.769z M196.923,208.246L19.692,225.969c0-2.954,0-5.908,0-8.862c0-100.431,78.769-182.154,177.231-187.077V208.246z" fill="#888888" data-original="#000000" style="" class=""/>
	</g>
</g>
<g xmlns="http://www.w3.org/2000/svg">
</g>
<g xmlns="http://www.w3.org/2000/svg">
</g>
<g xmlns="http://www.w3.org/2000/svg">
</g>
<g xmlns="http://www.w3.org/2000/svg">
</g>
<g xmlns="http://www.w3.org/2000/svg">
</g>
<g xmlns="http://www.w3.org/2000/svg">
</g>
<g xmlns="http://www.w3.org/2000/svg">
</g>
<g xmlns="http://www.w3.org/2000/svg">
</g>
<g xmlns="http://www.w3.org/2000/svg">
</g>
<g xmlns="http://www.w3.org/2000/svg">
</g>
<g xmlns="http://www.w3.org/2000/svg">
</g>
<g xmlns="http://www.w3.org/2000/svg">
</g>
<g xmlns="http://www.w3.org/2000/svg">
</g>
<g xmlns="http://www.w3.org/2000/svg">
</g>
<g xmlns="http://www.w3.org/2000/svg">
</g>
</g></svg>
